<?xml version="1.0" encoding="UTF-8"?>
<svg width="18px" height="19px" viewBox="0 0 18 19" version="1.1" xmlns="http://www.w3.org/2000/svg" xmlns:xlink="http://www.w3.org/1999/xlink">
    <!-- Generator: Sketch 57 (83077) - https://sketch.com -->
    <title>List-icon</title>
    <desc>Created with Sketch.</desc>
    <g id="Symbols" stroke="none" stroke-width="1" fill="none" fill-rule="evenodd">
        <g id="choose-model-button-" transform="translate(-140.000000, -10.000000)">
            <g id="List-icon" transform="translate(140.000000, 10.500000)">
                <g id="Group-13">
                    <circle id="Oval" fill="#FFFFFF" cx="9" cy="9" r="9"></circle>
                    <g id="tasks-solid" transform="translate(3.000000, 4.000000)" fill="#484848" fill-rule="nonzero">
                        <path d="M3.27210022,0.0816949567 C3.21932776,0.0293963425 3.14764269,0 3.07288126,0 C2.99811983,0 2.92643476,0.0293963425 2.8736623,0.0816949567 L1.38116073,1.54710427 L0.849128926,1.03510216 C0.796356469,0.982803541 0.724671398,0.953407199 0.649909967,0.953407199 C0.575148535,0.953407199 0.503463465,0.982803541 0.450691008,1.03510216 L0.0827218718,1.39896623 C0.0297658579,1.45108356 0,1.52187873 0,1.59571207 C0,1.66954541 0.0297658579,1.74034057 0.0827218718,1.79245791 L1.19811367,2.88960531 C1.31373999,2.99815194 1.49522216,2.99815194 1.61084848,2.88960531 L1.97623948,2.52805589 L3.66842876,0.857105036 C3.77815408,0.748655494 3.77909462,0.57320416 3.67053814,0.463613354 L3.27210022,0.0816949567 Z M3.27210022,3.76639736 C3.21932776,3.71409875 3.14764269,3.6847024 3.07288126,3.6847024 C2.99811983,3.6847024 2.92643476,3.71409875 2.8736623,3.76639736 L1.38116073,5.24129677 L0.849128926,4.72975758 C0.796356469,4.67745897 0.724671398,4.64806263 0.649909967,4.64806263 C0.575148535,4.64806263 0.503463465,4.67745897 0.450691008,4.72975758 L0.0827218718,5.09292726 C0.0297658579,5.1450446 1.59872116e-14,5.21583976 1.59872116e-14,5.2896731 C1.59872116e-14,5.36350644 0.0297658579,5.43430161 0.0827218718,5.48641894 L1.19530116,6.58588099 C1.31084882,6.69439814 1.49225394,6.69439814 1.6078016,6.58588099 L1.97577073,6.22271132 L3.66796001,4.55106607 C3.77728317,4.44335673 3.77822476,4.26874217 3.67006939,4.15988904 L3.27210022,3.76639736 Z M1.49998898,7.77792933 C0.879128957,7.77792933 0.361159664,8.27558057 0.361159664,8.88896466 C0.361159664,9.50234876 0.879597708,10 1.49998898,10 C2.12130998,10 2.62499016,9.50257254 2.62499016,8.88896466 C2.62499016,8.27535679 2.12130998,7.77792933 1.49998898,7.77792933 Z M11.6249996,8.14827444 L4.87499252,8.14827444 C4.66788553,8.14827444 4.49999213,8.31408359 4.49999213,8.51861955 L4.49999213,9.25930978 C4.49999213,9.46384573 4.66788553,9.62965489 4.87499252,9.62965489 L11.6249996,9.62965489 C11.8321066,9.62965489 11.9999921,9.46384573 11.9999921,9.25930978 L11.9999921,8.51861955 C11.9999921,8.31408359 11.8321066,8.14827444 11.6249996,8.14827444 Z M11.6249996,0.741372188 L4.87499252,0.741372188 C4.66788553,0.741372188 4.49999213,0.907181343 4.49999213,1.1117173 L4.49999213,1.85240753 C4.49999213,2.05694348 4.66788553,2.22275264 4.87499252,2.22275264 L11.6249996,2.22275264 C11.8321066,2.22275264 11.9999921,2.05694348 11.9999921,1.85240753 L11.9999921,1.1117173 C11.9999921,0.907181343 11.8321066,0.741372188 11.6249996,0.741372188 Z M11.6249996,4.44482331 L4.87499252,4.44482331 C4.66788553,4.44482331 4.49999213,4.61063247 4.49999213,4.81516843 L4.49999213,5.55585865 C4.49999213,5.76039461 4.66788553,5.92620376 4.87499252,5.92620376 L11.6249996,5.92620376 C11.8321066,5.92620376 11.9999921,5.76039461 11.9999921,5.55585865 L11.9999921,4.81516843 C11.9999921,4.61063247 11.8321066,4.44482331 11.6249996,4.44482331 Z" id="Shape"></path>
                    </g>
                </g>
            </g>
        </g>
    </g>
</svg>