<?xml version="1.0" encoding="UTF-8"?>
<svg width="566px" height="961px" viewBox="0 0 566 961" version="1.1" xmlns="http://www.w3.org/2000/svg" xmlns:xlink="http://www.w3.org/1999/xlink">
    <!-- Generator: Sketch 57 (83077) - https://sketch.com -->
    <title>Group 2</title>
    <desc>Created with Sketch.</desc>
    <defs>
        <linearGradient x1="59.7061563%" y1="0%" x2="40.2938437%" y2="100%" id="linearGradient-1">
            <stop stop-color="#FFFFFF" stop-opacity="0.866586538" offset="0%"></stop>
            <stop stop-color="#FFFFFF" stop-opacity="0.500874126" offset="53.5393792%"></stop>
            <stop stop-color="#FFFFFF" stop-opacity="0.872159091" offset="100%"></stop>
        </linearGradient>
        <linearGradient x1="0%" y1="52.2005966%" x2="100%" y2="47.7994034%" id="linearGradient-2">
            <stop stop-color="#FFFFFF" stop-opacity="0.870492788" offset="0%"></stop>
            <stop stop-color="#FFFFFF" stop-opacity="0.500874126" offset="53.4760346%"></stop>
            <stop stop-color="#FFFFFF" stop-opacity="0.868116259" offset="100%"></stop>
        </linearGradient>
        <linearGradient x1="19.0239334%" y1="0%" x2="80.9760666%" y2="100%" id="linearGradient-3">
            <stop stop-color="#FFFFFF" stop-opacity="0.866012893" offset="0%"></stop>
            <stop stop-color="#FFFFFF" stop-opacity="0.500874126" offset="53.9563978%"></stop>
            <stop stop-color="#FFFFFF" stop-opacity="0.869072334" offset="100%"></stop>
        </linearGradient>
    </defs>
    <g id="Alternative-2-w:1920" stroke="none" stroke-width="1" fill="none" fill-rule="evenodd">
        <g id="Landingpage" transform="translate(-1354.000000, -5513.000000)" fill="#FFFFFF">
            <g id="Group-2" transform="translate(1692.000000, 6050.500000) rotate(-139.000000) translate(-1692.000000, -6050.500000) translate(1395.000000, 5527.000000)">
                <circle id="Oval-Copy-3" fill-opacity="0.867050918" transform="translate(118.176558, 618.515886) rotate(-9.000000) translate(-118.176558, -618.515886) " cx="118.176558" cy="618.515886" r="103.28635"></circle>
                <circle id="Oval-Copy-4" fill-opacity="0.867050918" transform="translate(267.628741, 73.957237) rotate(-9.000000) translate(-267.628741, -73.957237) " cx="267.628741" cy="73.9572372" r="64.4436202"></circle>
                <circle id="Oval-Copy-5" fill-opacity="0.867050918" transform="translate(520.106486, 462.384537) rotate(-9.000000) translate(-520.106486, -462.384537) " cx="520.106486" cy="462.384537" r="64.4436202"></circle>
                <circle id="Oval-Copy-6" fill-opacity="0.867050918" transform="translate(500.685121, 972.636762) rotate(-9.000000) translate(-500.685121, -972.636762) " cx="500.685121" cy="972.636762" r="64.4436202"></circle>
                <path d="M118.223511,505.97126 L275.36001,149.324376" id="Line-2" stroke="url(#linearGradient-1)" stroke-width="5" stroke-linecap="square" transform="translate(196.791761, 327.647818) rotate(-9.000000) translate(-196.791761, -327.647818) "></path>
                <path d="M212.556674,562.239004 L465.034418,509.271645" id="Line-2-Copy" stroke="url(#linearGradient-2)" stroke-width="5" stroke-linecap="square" transform="translate(338.795546, 535.755325) rotate(-9.000000) translate(-338.795546, -535.755325) "></path>
                <path d="M214.475103,673.491994 L429.875696,947.156683" id="Line-2-Copy-2" stroke="url(#linearGradient-3)" stroke-width="5" stroke-linecap="square" transform="translate(322.175400, 810.324338) rotate(-9.000000) translate(-322.175400, -810.324338) "></path>
                <path d="M158.842905,427.745873 C160.767213,450.570372 163.265704,469.212445 166.338379,483.672092 C169.411054,498.131738 173.6981,511.315489 179.199518,523.223343 C172.964602,521.762591 166.034511,520.980292 158.409244,520.876447 C150.783977,520.772601 143.608361,521.362799 136.882396,522.647041 C140.943316,522.921484 145.116951,512.973179 149.403299,492.802128 C153.689647,472.631076 156.836183,450.945658 158.842905,427.745873 Z" id="Triangle-Copy-6" fill-opacity="0.867050918" transform="translate(158.040957, 475.484608) rotate(375.000000) translate(-158.040957, -475.484608) "></path>
                <path d="M255.302191,522.154739 C257.155229,544.133886 259.561184,562.085511 262.520056,576.009616 C265.478928,589.93372 270.021533,602.227677 276.14787,612.891487 C269.103405,611.636951 262.297955,611.03128 255.731519,611.074476 C249.165083,611.117671 242.332635,611.813054 235.234173,613.160626 C238.425263,613.678519 242.084606,604.225478 246.212201,584.801502 C250.339796,565.377527 253.369792,544.495272 255.302191,522.154739 Z" id="Triangle-Copy-7" fill-opacity="0.867050918" transform="translate(255.691021, 567.667770) rotate(430.000000) translate(-255.691021, -567.667770) "></path>
                <path d="M227.834562,671.906564 C230.043953,698.11247 232.912591,719.516331 236.440477,736.118148 C239.968363,752.719965 245.73333,767.410422 253.735379,780.18952 C245.55438,778.2318 237.388203,777.225099 229.236847,777.169418 C221.085491,777.113737 212.585104,778.00659 203.735685,779.847976 C207.654863,780.842536 212.075133,769.760138 216.996496,746.600782 C221.917859,723.441427 225.530548,698.543354 227.834562,671.906564 Z" id="Triangle-Copy-8" fill-opacity="0.867050918" transform="translate(228.735532, 726.048042) rotate(494.000000) translate(-228.735532, -726.048042) "></path>
                <path d="M423.139056,857.665766 C424.956458,879.222237 427.316144,896.828639 430.218115,910.484972 C433.120086,924.141305 438.218887,935.627611 445.514518,944.94389 C438.204722,942.834486 430.877415,941.96823 423.532597,942.345123 C416.187779,942.722015 408.955785,944.335368 401.836615,947.185181 C406.046569,947.517354 410.175655,938.158222 414.223873,919.107784 C418.272091,900.057347 421.243818,879.576674 423.139056,857.665766 Z" id="Triangle-Copy-9" fill-opacity="0.867050918" transform="translate(423.675566, 902.429743) rotate(674.000000) translate(-423.675566, -902.429743) "></path>
                <path d="M421.09255,459.24632 C422.981223,481.648143 425.433446,499.944992 428.449219,514.136867 C431.464993,528.328743 435.892646,541.292536 441.73218,553.028248 C435.834682,550.927537 429.381036,549.859342 422.371242,549.823664 C415.361448,549.787985 408.306941,550.787427 401.20772,552.821987 C404.08077,552.803395 407.62078,542.895342 411.827752,523.097829 C416.034723,503.300315 419.122989,482.016479 421.09255,459.24632 Z" id="Triangle-Copy-10" fill-opacity="0.867050918" transform="translate(421.469950, 506.137284) rotate(606.000000) translate(-421.469950, -506.137284) "></path>
                <path d="M237.506536,129.962973 C239.430844,152.787472 241.929336,171.429545 245.002011,185.889192 C248.074686,200.348838 252.735386,213.323049 258.984112,224.811823 C252.16838,222.293276 245.205827,220.917623 238.096453,220.684864 C230.98708,220.452105 223.87337,221.366905 216.755325,223.429263 C220.010047,224.660291 223.780582,215.190279 228.06693,195.019228 C232.353279,174.848176 235.499814,153.162758 237.506536,129.962973 Z" id="Triangle-Copy-11" fill-opacity="0.867050918" transform="translate(237.869718, 177.387398) rotate(555.000000) translate(-237.869718, -177.387398) "></path>
            </g>
        </g>
    </g>
</svg>