<?xml version="1.0" encoding="UTF-8"?>
<svg width="564px" height="1006px" viewBox="0 0 564 1006" version="1.1" xmlns="http://www.w3.org/2000/svg" xmlns:xlink="http://www.w3.org/1999/xlink">
    <!-- Generator: Sketch 57 (83077) - https://sketch.com -->
    <title>Group</title>
    <desc>Created with Sketch.</desc>
    <defs>
        <linearGradient x1="59.7061563%" y1="0%" x2="40.2938437%" y2="100%" id="linearGradient-1">
            <stop stop-color="#FFFFFF" stop-opacity="0.866586538" offset="0%"></stop>
            <stop stop-color="#FFFFFF" stop-opacity="0.500874126" offset="53.5393792%"></stop>
            <stop stop-color="#FFFFFF" stop-opacity="0.872159091" offset="100%"></stop>
        </linearGradient>
        <linearGradient x1="33.8672544%" y1="0%" x2="66.1327456%" y2="98.7155153%" id="linearGradient-2">
            <stop stop-color="#FFFFFF" stop-opacity="0.86565778" offset="0%"></stop>
            <stop stop-color="#FFFFFF" stop-opacity="0.500874126" offset="53.0959671%"></stop>
            <stop stop-color="#FFFFFF" stop-opacity="0.869017701" offset="100%"></stop>
        </linearGradient>
        <linearGradient x1="60.0418381%" y1="0%" x2="39.9581619%" y2="100%" id="linearGradient-3">
            <stop stop-color="#FFFFFF" stop-opacity="0.869372815" offset="0%"></stop>
            <stop stop-color="#FFFFFF" stop-opacity="0.43558785" offset="55.402766%"></stop>
            <stop stop-color="#FFFFFF" stop-opacity="0.866859703" offset="100%"></stop>
        </linearGradient>
        <linearGradient x1="100%" y1="45.2606217%" x2="1.48801498%" y2="54.7393783%" id="linearGradient-4">
            <stop stop-color="#FFFFFF" stop-opacity="0.867843094" offset="0%"></stop>
            <stop stop-color="#FFFFFF" stop-opacity="0.500874126" offset="53.4813133%"></stop>
            <stop stop-color="#FFFFFF" stop-opacity="0.867870411" offset="100%"></stop>
        </linearGradient>
        <linearGradient x1="0%" y1="52.2005966%" x2="100%" y2="47.7994034%" id="linearGradient-5">
            <stop stop-color="#FFFFFF" stop-opacity="0.870492788" offset="0%"></stop>
            <stop stop-color="#FFFFFF" stop-opacity="0.500874126" offset="53.4760346%"></stop>
            <stop stop-color="#FFFFFF" stop-opacity="0.868116259" offset="100%"></stop>
        </linearGradient>
        <linearGradient x1="19.0239334%" y1="0%" x2="80.9760666%" y2="100%" id="linearGradient-6">
            <stop stop-color="#FFFFFF" stop-opacity="0.866012893" offset="0%"></stop>
            <stop stop-color="#FFFFFF" stop-opacity="0.500874126" offset="53.9563978%"></stop>
            <stop stop-color="#FFFFFF" stop-opacity="0.869072334" offset="100%"></stop>
        </linearGradient>
    </defs>
    <g id="Alternative-2-w:1920" stroke="none" stroke-width="1" fill="none" fill-rule="evenodd">
        <g id="Landingpage" transform="translate(0.000000, -1117.000000)" fill="#FFFFFF">
            <g id="Group" transform="translate(-58.000000, 1111.000000)">
                <circle id="Oval" fill-opacity="0.866012893" transform="translate(67.500000, 420.930164) rotate(-9.000000) translate(-67.500000, -420.930164) " cx="67.5" cy="420.930164" r="58.5"></circle>
                <circle id="Oval-Copy-3" fill-opacity="0.867050918" transform="translate(357.447620, 774.930697) rotate(-9.000000) translate(-357.447620, -774.930697) " cx="357.44762" cy="774.930697" r="58.5"></circle>
                <circle id="Oval-Copy" fill-opacity="0.866012893" transform="translate(165.095328, 42.500000) rotate(-9.000000) translate(-165.095328, -42.500000) " cx="165.095328" cy="42.5" r="36.5"></circle>
                <circle id="Oval-Copy-2" fill-opacity="0.866012893" transform="translate(552.500000, 182.500000) rotate(-9.000000) translate(-552.500000, -182.500000) " cx="552.5" cy="182.5" r="36.5"></circle>
                <circle id="Oval-Copy-4" fill-opacity="0.867050918" transform="translate(442.095328, 466.500000) rotate(-9.000000) translate(-442.095328, -466.500000) " cx="442.095328" cy="466.5" r="36.5"></circle>
                <circle id="Oval-Copy-5" fill-opacity="0.867050918" transform="translate(585.095328, 686.500000) rotate(-9.000000) translate(-585.095328, -686.500000) " cx="585.095328" cy="686.5" r="36.5"></circle>
                <circle id="Oval-Copy-6" fill-opacity="0.867050918" transform="translate(574.095328, 975.500000) rotate(-9.000000) translate(-574.095328, -975.500000) " cx="574.095328" cy="975.5" r="36.5"></circle>
                <path d="M357.807535,710.829891 L446.474214,509.186934" id="Line-2" stroke="url(#linearGradient-1)" stroke-width="5" stroke-linecap="square" transform="translate(401.974214, 610.186934) rotate(-9.000000) translate(-401.974214, -610.186934) "></path>
                <path d="M292.269243,747.293105 L125.996956,454.679834" id="Line-2-Copy-5" stroke="url(#linearGradient-2)" stroke-width="5" stroke-linecap="square" transform="translate(209.200174, 601.233203) rotate(-9.000000) translate(-209.200174, -601.233203) "></path>
                <path d="M61.3169619,354.737335 L181.773147,86.0084805" id="Line-2-Copy-3" stroke="url(#linearGradient-3)" stroke-width="5" stroke-linecap="square" transform="translate(121.523147, 220.258481) rotate(-9.000000) translate(-121.523147, -220.258481) "></path>
                <path d="M111.506696,364.616802 L530.141278,236.460383" id="Line-2-Copy-4" stroke="url(#linearGradient-4)" stroke-width="5" stroke-linecap="square" transform="translate(320.773051, 300.791523) rotate(-9.000000) translate(-320.773051, -300.791523) "></path>
                <path d="M410.956029,742.501032 L553.653249,713.806228" id="Line-2-Copy" stroke="url(#linearGradient-5)" stroke-width="5" stroke-linecap="square" transform="translate(482.403249, 728.056228) rotate(-9.000000) translate(-482.403249, -728.056228) "></path>
                <path d="M412.315847,807.066635 L533.864822,960.193425" id="Line-2-Copy-2" stroke="url(#linearGradient-6)" stroke-width="5" stroke-linecap="square" transform="translate(472.989822, 883.568425) rotate(-9.000000) translate(-472.989822, -883.568425) "></path>
                <path d="M95.352374,270.014896 C97.451445,294.912283 100.176846,315.247402 103.528577,331.020252 C106.880308,346.793103 112.224059,360.480696 119.559832,372.083029 C110.848182,368.265647 102.357019,366.387546 94.0863426,366.448727 C81.6803283,366.540498 71.1293414,371.411017 71.0072298,370.95529 C70.8851181,370.499563 78.0420346,373.983901 85.0554771,340.979465 C89.7311055,318.976508 93.1634045,295.321652 95.352374,270.014896 Z" id="Triangle" fill-opacity="0.866012893" transform="translate(95.282760, 321.048963) rotate(15.000000) translate(-95.282760, -321.048963) "></path>
                <path d="M151.176228,72.9114642 C152.427597,87.754137 154.052355,99.8769963 156.050503,109.280042 C158.04865,118.683088 161.927137,127.452334 167.685963,135.587779 C162.018334,133.53244 156.733925,132.733303 151.832736,133.190368 C146.931546,133.647433 141.665302,135.143932 136.034004,137.679864 C139.24907,135.821946 142.250299,128.334413 145.037693,115.217265 C147.825087,102.100118 149.871265,87.9981839 151.176228,72.9114642 Z" id="Triangle-Copy-2" fill-opacity="0.866012893" transform="translate(151.859983, 105.295664) rotate(-166.000000) translate(-151.859983, -105.295664) "></path>
                <path d="M498.399919,185 C499.530188,198.406285 500.997711,209.355965 502.802489,217.849038 C504.607267,226.342112 507.177518,234.124839 510.513241,241.197219 C506.334215,239.924561 502.230495,239.339011 498.202083,239.440568 C494.173671,239.542126 490.10631,240.333674 486,241.815211 C488.052644,241.260611 490.33779,235.059437 492.855436,223.211691 C495.373082,211.363945 497.221243,198.626715 498.399919,185 Z" id="Triangle-Copy-3" fill-opacity="0.866012893" transform="translate(498.256620, 213.407606) rotate(-119.000000) translate(-498.256620, -213.407606) "></path>
                <path d="M148.260034,352 C149.55177,367.321469 151.22894,379.835388 153.291544,389.541758 C155.354147,399.248128 158.276646,408.306533 162.05904,416.716973 C157.354706,415.89116 152.742794,415.41912 148.223302,415.300855 C143.703811,415.18259 139.296043,415.810793 135,417.185467 C136.738345,416.38244 139.046172,409.210785 141.923482,395.670504 C144.800792,382.130223 146.912976,367.573388 148.260034,352 Z" id="Triangle-Copy" fill-opacity="0.866012893" transform="translate(148.529520, 384.592733) rotate(66.000000) translate(-148.529520, -384.592733) "></path>
                <path d="M122.844592,458.360305 C124.217062,474.639365 125.999055,487.935404 128.190571,498.248422 C130.382087,508.56144 133.596511,517.934025 137.833842,526.366178 C134.633554,525.191578 129.785406,524.540004 123.289397,524.411454 C116.793389,524.282905 111.57824,524.869845 107.64395,526.172275 C110.232179,526.284117 113.054864,519.146764 116.112006,504.760215 C119.169147,490.373666 121.413343,474.90703 122.844592,458.360305 Z" id="Triangle-Copy-4" fill-opacity="0.867050918" transform="translate(122.738896, 492.363241) rotate(142.000000) translate(-122.738896, -492.363241) "></path>
                <path d="M295.701719,673.038217 C297.114555,689.796073 298.94896,703.483172 301.204932,714.099514 C303.460905,724.715856 307.053966,733.581455 311.984116,740.696311 C306.535692,740.102115 301.209888,740.166533 296.006705,740.889566 C290.803522,741.612598 285.632173,743.006861 280.49266,745.072353 C282.864572,743.702354 285.624058,735.612513 288.771115,720.802831 C291.918173,705.993148 294.228374,690.07161 295.701719,673.038217 Z" id="Triangle-Copy-5" fill-opacity="0.867050918" transform="translate(296.238388, 709.055285) rotate(322.000000) translate(-296.238388, -709.055285) "></path>
                <path d="M380.480492,666.881127 C381.570395,679.808616 382.985507,690.367235 384.725828,698.556985 C386.46615,706.746734 388.894275,714.213833 392.010204,720.958282 C388.478832,720.130931 384.553722,719.687848 380.234873,719.629031 C375.916024,719.570214 371.851852,719.904495 368.042356,720.631872 C370.342406,720.787313 372.706297,715.152727 375.134027,703.728115 C377.561757,692.303502 379.343912,680.021173 380.480492,666.881127 Z" id="Triangle-Copy-6" fill-opacity="0.867050918" transform="translate(380.026280, 693.919704) rotate(375.000000) translate(-380.026280, -693.919704) "></path>
                <path d="M435.113735,720.353039 C436.163271,732.801732 437.525971,742.969291 439.201837,750.855717 C440.877702,758.742142 443.450572,765.705274 446.920447,771.745113 C442.930557,771.034561 439.076042,770.691517 435.356901,770.715982 C431.63776,770.740447 427.767953,771.134303 423.74748,771.89755 C425.55487,772.190877 427.627473,766.836802 429.965287,755.835323 C432.303101,744.833845 434.019251,733.006417 435.113735,720.353039 Z" id="Triangle-Copy-7" fill-opacity="0.867050918" transform="translate(435.333964, 746.131008) rotate(430.000000) translate(-435.333964, -746.131008) "></path>
                <path d="M419.556439,805.170459 C420.807809,820.013132 422.432567,832.135991 424.430714,841.539037 C426.428861,850.942083 429.694061,859.26256 434.226314,866.50047 C429.592706,865.391643 424.967493,864.821461 420.350675,864.789924 C415.733857,864.758387 410.919351,865.264087 405.907159,866.307024 C408.126929,866.870329 410.630511,860.593407 413.417905,847.47626 C416.205299,834.359112 418.251477,820.257179 419.556439,805.170459 Z" id="Triangle-Copy-8" fill-opacity="0.867050918" transform="translate(420.066737, 835.835464) rotate(494.000000) translate(-420.066737, -835.835464) "></path>
                <path d="M530.174279,910.381974 C531.203631,922.591269 532.540126,932.563298 534.183763,940.298062 C535.8274,948.032825 538.715292,954.538514 542.84744,959.815129 C538.70727,958.620391 534.557182,958.129756 530.397175,958.343223 C526.237169,958.556689 522.141065,959.470471 518.108863,961.084566 C520.493324,961.272705 522.831983,955.971818 525.124839,945.181907 C527.417695,934.391995 529.100842,922.792017 530.174279,910.381974 Z" id="Triangle-Copy-9" fill-opacity="0.867050918" transform="translate(530.478151, 935.735688) rotate(674.000000) translate(-530.478151, -935.735688) "></path>
                <path d="M529.015165,684.722556 C530.084884,697.410647 531.47379,707.773737 533.181884,715.811824 C534.889978,723.849912 537.397741,731.19243 540.705174,737.839379 C537.364911,736.649565 533.709653,736.044553 529.7394,736.024346 C525.769146,736.004138 521.773568,736.570208 517.752665,737.722556 C519.379922,737.712026 521.384936,732.100238 523.767708,720.887192 C526.15048,709.674147 527.899633,697.619268 529.015165,684.722556 Z" id="Triangle-Copy-10" fill-opacity="0.867050918" transform="translate(529.228920, 711.280967) rotate(606.000000) translate(-529.228920, -711.280967) "></path>
                <path d="M425.034516,498.220896 C426.124418,511.148385 427.53953,521.707005 429.279852,529.896754 C431.020173,538.086504 433.659931,545.434922 437.199126,551.942009 C433.338787,550.515538 429.39529,549.736386 425.368637,549.604555 C421.341983,549.472723 417.312874,549.990854 413.281308,551.158946 C415.124739,551.856184 417.26032,546.492496 419.68805,535.067884 C422.11578,523.643271 423.897935,511.360942 425.034516,498.220896 Z" id="Triangle-Copy-11" fill-opacity="0.867050918" transform="translate(425.240217, 525.081453) rotate(555.000000) translate(-425.240217, -525.081453) "></path>
            </g>
        </g>
    </g>
</svg>