<svg xmlns="http://www.w3.org/2000/svg" xmlns:xlink="http://www.w3.org/1999/xlink" id="svg" viewBox="0, 0, 400,400"><g id="svgg"><path id="path0" d="M191.000 17.846 C 189.900 17.934,183.150 18.372,176.000 18.819 C 155.097 20.126,147.656 21.776,141.400 26.489 C 137.498 29.429,133.372 31.048,120.280 34.776 C 114.211 36.505,112.318 37.577,108.548 41.425 C 105.786 44.244,104.671 45.056,101.148 46.812 C 89.013 52.860,88.186 53.404,82.600 59.012 C 78.547 63.080,76.748 64.581,74.446 65.813 C 70.250 68.059,68.499 69.772,66.029 74.047 C 64.270 77.093,62.876 78.780,58.631 83.000 C 53.230 88.369,51.356 91.211,45.585 102.788 C 45.095 103.771,43.209 106.120,41.394 108.006 C 37.514 112.040,36.108 114.589,34.414 120.667 C 31.999 129.334,29.347 135.576,26.353 139.645 C 21.336 146.461,19.849 153.558,17.938 179.800 C 16.724 196.478,16.773 208.045,18.135 225.600 C 20.037 250.128,21.413 256.391,26.400 263.200 C 29.526 267.469,31.813 272.616,33.775 279.800 C 36.029 288.054,37.047 290.035,41.775 295.365 C 44.510 298.449,47.086 302.592,50.494 309.390 C 53.471 315.327,54.137 316.202,57.725 318.910 C 61.796 321.982,62.837 323.168,65.047 327.256 C 67.394 331.597,69.499 333.681,73.813 335.932 C 77.539 337.877,78.918 339.090,81.792 342.957 C 84.695 346.862,85.203 347.272,90.794 350.213 C 96.392 353.158,100.733 356.037,105.530 359.989 C 109.833 363.534,113.129 365.225,118.763 366.780 C 125.946 368.761,129.299 370.236,134.489 373.692 C 142.289 378.887,144.475 379.645,156.600 381.366 C 186.769 385.646,214.210 385.649,244.400 381.375 C 256.156 379.710,259.032 378.733,265.710 374.138 C 270.195 371.051,275.310 368.692,280.800 367.179 C 287.376 365.366,291.145 363.494,295.400 359.928 C 299.932 356.129,305.505 352.463,309.954 350.352 C 314.768 348.067,316.775 346.470,319.152 343.031 C 321.656 339.409,323.436 337.841,327.564 335.619 C 331.604 333.445,333.357 331.684,335.737 327.410 C 338.076 323.209,339.387 321.678,342.622 319.370 C 346.295 316.748,347.718 314.953,350.438 309.505 C 353.995 302.382,356.371 298.607,359.567 294.996 C 363.153 290.945,365.236 286.962,366.796 281.174 C 369.055 272.793,370.924 268.555,374.975 262.622 C 379.882 255.434,381.081 249.453,383.033 222.400 C 384.257 205.438,384.210 195.297,382.823 177.000 C 381.072 153.907,379.473 146.452,374.903 140.083 C 371.541 135.397,369.256 130.053,366.403 120.200 C 364.700 114.322,363.296 111.823,359.601 108.099 C 357.809 106.292,356.040 104.051,355.406 102.787 C 350.498 92.986,347.003 87.352,344.248 84.800 C 338.700 79.662,336.974 77.685,335.136 74.366 C 332.782 70.114,331.142 68.485,326.415 65.703 C 322.833 63.593,320.867 61.871,315.901 56.493 C 313.745 54.157,311.047 52.494,302.323 48.125 C 296.871 45.393,295.827 44.699,292.800 41.795 C 287.820 37.017,286.648 36.381,278.800 34.195 C 267.573 31.068,263.142 29.321,259.859 26.726 C 255.794 23.513,250.820 21.744,241.600 20.234 C 233.451 18.899,198.480 17.249,191.000 17.846 M219.800 28.044 C 239.708 29.221,247.585 30.971,256.141 36.118 C 261.998 39.642,264.605 40.821,269.600 42.211 C 280.282 45.182,286.105 47.867,290.475 51.834 C 294.454 55.448,296.640 56.849,301.876 59.146 C 307.596 61.654,308.353 62.219,310.671 65.710 C 313.499 69.970,314.909 71.362,318.486 73.425 C 322.805 75.917,324.823 77.865,327.256 81.893 C 329.619 85.805,331.222 87.522,334.351 89.490 C 338.588 92.157,339.813 93.693,341.932 99.002 C 343.585 103.141,344.804 104.940,348.656 108.931 C 352.880 113.306,355.388 118.451,358.438 129.000 C 360.108 134.775,361.289 137.322,364.681 142.457 C 370.628 151.460,372.599 161.830,373.622 189.487 C 374.957 225.559,371.706 250.409,364.285 260.877 C 361.760 264.437,360.701 266.711,359.011 272.200 C 354.538 286.722,353.120 289.725,349.001 293.412 C 345.622 296.437,344.288 298.373,342.195 303.295 C 340.554 307.155,338.649 309.582,335.489 311.842 C 332.073 314.283,330.481 315.977,327.502 320.334 C 324.660 324.492,324.101 325.017,317.920 329.338 C 316.155 330.572,314.584 332.132,313.320 333.906 C 310.034 338.516,307.733 340.472,303.402 342.338 C 298.413 344.487,296.446 345.873,293.928 349.014 C 290.771 352.954,286.725 354.926,273.567 358.938 C 268.525 360.475,266.250 361.607,261.849 364.767 C 251.863 371.937,234.096 374.352,194.800 373.883 C 161.133 373.481,147.560 371.201,138.668 364.456 C 134.926 361.617,133.941 361.165,124.477 357.940 C 110.981 353.340,111.005 353.352,106.958 348.943 C 103.577 345.259,103.302 345.059,98.233 342.594 C 92.337 339.726,91.467 339.039,88.321 334.762 C 86.099 331.742,84.198 329.981,80.846 327.839 C 77.979 326.006,75.630 323.606,73.172 320.000 C 70.161 315.581,69.474 314.828,66.600 312.790 C 62.146 309.633,61.290 308.567,58.374 302.543 C 55.729 297.081,55.516 296.777,52.194 293.743 C 48.045 289.953,47.448 288.824,43.987 278.200 C 40.286 266.838,39.723 265.475,37.091 261.475 C 29.278 249.601,26.726 232.327,27.332 195.400 C 27.838 164.517,30.018 151.648,36.322 142.332 C 39.702 137.337,40.677 135.221,42.754 128.378 C 46.222 116.952,48.031 113.316,52.512 108.773 C 56.072 105.164,56.927 103.856,59.165 98.600 C 61.359 93.445,62.223 92.358,66.154 89.802 C 70.113 87.228,71.311 85.974,73.988 81.600 C 76.693 77.181,77.130 76.740,81.400 74.120 C 85.762 71.443,87.536 69.809,89.782 66.400 C 92.372 62.470,93.732 61.400,98.854 59.261 C 104.029 57.100,106.158 55.753,110.062 52.170 C 114.230 48.345,120.259 45.373,128.600 43.030 C 135.639 41.053,139.211 39.579,143.868 36.731 C 152.580 31.402,155.334 30.598,170.399 28.980 C 182.443 27.686,206.151 27.237,219.800 28.044 M101.815 124.384 C 99.156 127.322,101.047 131.119,107.000 134.798 C 109.726 136.483,112.688 138.639,118.000 142.805 C 127.548 150.294,135.240 150.499,148.197 143.609 C 158.969 137.881,187.302 134.209,195.488 137.480 C 201.546 139.900,204.150 145.304,202.804 152.663 C 200.483 165.354,199.674 167.160,194.772 170.595 C 191.239 173.071,189.888 174.650,187.550 179.033 C 185.234 183.376,183.921 184.957,180.583 187.425 C 175.306 191.328,174.000 193.895,174.000 200.366 C 174.000 208.029,175.181 209.077,188.200 212.968 C 198.398 216.015,199.429 216.526,203.205 220.406 C 206.778 224.075,208.519 225.012,216.200 227.392 C 232.167 232.341,231.252 231.593,235.986 243.590 C 240.032 253.842,240.078 254.222,238.280 262.425 C 236.683 269.712,236.112 274.596,234.569 294.200 C 233.049 313.507,232.968 316.117,233.771 319.727 C 235.200 326.152,237.945 326.818,244.000 322.209 C 245.210 321.288,247.773 319.505,249.694 318.246 C 251.831 316.847,254.085 314.929,255.494 313.312 C 260.230 307.881,261.135 307.053,265.615 304.062 C 269.683 301.345,270.501 300.594,272.873 297.400 C 276.159 292.975,277.946 291.348,281.665 289.394 C 285.266 287.501,287.568 285.401,290.016 281.775 C 292.364 278.297,293.778 277.033,297.777 274.838 C 302.570 272.208,304.074 270.593,306.655 265.304 C 308.321 261.892,309.580 259.962,311.619 257.695 C 316.539 252.224,317.778 248.475,320.195 231.737 C 322.543 215.478,324.622 207.119,327.639 201.800 C 334.984 188.854,336.316 175.600,330.272 175.600 C 327.265 175.600,325.330 178.225,323.192 185.200 C 321.805 189.726,321.416 190.602,317.690 197.600 C 314.528 203.540,313.551 207.119,311.793 219.200 C 309.423 235.489,307.420 243.001,304.213 247.626 C 302.496 250.103,300.469 253.390,297.841 257.958 C 296.038 261.093,293.164 264.090,289.001 267.179 C 286.374 269.127,284.443 271.011,282.165 273.847 C 277.427 279.746,275.773 280.676,265.600 283.157 C 263.730 283.613,260.734 284.374,258.943 284.847 C 252.976 286.422,250.753 284.048,248.978 274.200 C 247.675 266.973,248.400 261.428,251.591 254.221 C 257.012 241.975,256.413 238.245,248.257 233.443 C 246.245 232.259,243.516 230.325,242.191 229.145 C 235.938 223.577,232.663 221.864,221.200 218.161 C 214.408 215.968,210.032 212.862,201.137 203.924 C 192.386 195.130,194.547 184.229,207.783 170.397 C 209.839 168.249,212.779 164.626,214.317 162.346 C 216.035 159.799,218.800 156.503,221.487 153.800 C 227.143 148.110,227.989 145.467,225.629 140.863 C 219.597 129.097,199.893 124.117,171.400 127.159 C 159.606 128.417,157.837 128.776,146.400 132.223 C 134.135 135.920,130.648 135.840,124.579 131.723 C 120.950 129.261,117.775 127.792,113.182 126.447 C 110.882 125.773,107.969 124.857,106.710 124.411 C 103.842 123.395,102.715 123.389,101.815 124.384 M86.200 248.201 C 78.672 250.863,81.968 256.889,91.369 257.650 C 105.109 258.763,110.113 259.676,115.049 261.972 C 122.706 265.532,124.772 273.777,122.276 290.800 C 121.376 296.934,121.897 298.242,125.633 299.240 C 131.065 300.692,133.137 296.030,134.804 278.600 C 135.246 273.980,135.887 267.710,136.230 264.667 C 137.680 251.773,135.537 250.166,115.600 249.196 C 110.650 248.956,103.360 248.499,99.400 248.182 C 90.549 247.473,88.250 247.476,86.200 248.201 " stroke="none" fill="#f8f8f8" fill-rule="evenodd"/></g></svg>