<svg xmlns="http://www.w3.org/2000/svg" xmlns:xlink="http://www.w3.org/1999/xlink" id="svg" viewBox="0, 0, 400,400"><g id="svgg"><path id="path0" d="M99.200 23.586 C 91.323 24.618,86.471 27.622,83.925 33.044 C 81.479 38.252,81.575 34.695,81.693 115.803 L 81.800 189.800 82.713 191.635 C 86.370 198.980,100.644 196.991,102.314 188.904 C 102.684 187.116,102.800 171.092,102.800 122.037 C 102.800 63.508,102.861 57.313,103.454 55.262 C 104.996 49.930,109.358 46.002,115.287 44.604 C 119.096 43.706,282.276 43.699,285.723 44.597 C 290.514 45.845,294.558 48.789,296.376 52.353 C 298.448 56.414,298.400 54.717,298.400 124.218 C 298.400 194.432,298.283 190.596,300.500 193.068 C 303.396 196.295,313.050 196.957,316.379 194.157 C 319.230 191.758,319.000 198.764,319.000 114.200 L 319.000 38.200 318.086 35.557 C 315.848 29.081,313.348 26.770,306.129 24.507 L 302.600 23.400 202.000 23.349 C 146.670 23.321,100.410 23.428,99.200 23.586 M37.783 63.521 C 33.751 66.059,32.802 68.986,31.793 82.000 C 30.201 102.522,28.194 116.411,23.584 138.800 C 19.781 157.270,18.917 163.828,17.194 187.307 C 15.787 206.483,14.796 216.404,13.211 227.188 C 11.778 236.942,11.976 238.434,15.096 241.415 C 16.810 243.052,18.907 244.287,21.669 245.285 L 24.200 246.200 70.600 246.414 L 117.000 246.627 119.926 247.522 C 130.031 250.613,135.086 255.714,139.032 266.800 C 141.265 273.074,142.412 274.895,147.345 280.000 C 149.152 281.870,151.696 284.633,152.998 286.139 C 155.618 289.169,158.573 291.398,163.400 293.982 C 165.160 294.925,167.927 296.709,169.550 297.948 C 176.466 303.229,177.808 303.844,185.485 305.241 C 201.840 308.217,221.640 305.777,228.862 299.895 C 232.506 296.927,234.766 295.434,238.762 293.356 C 248.141 288.480,258.482 276.160,262.841 264.671 C 265.825 256.806,269.492 252.538,275.800 249.588 C 282.550 246.431,278.710 246.654,330.400 246.410 C 376.229 246.193,376.620 246.184,379.099 245.338 C 383.913 243.694,386.923 241.199,388.235 237.764 C 389.004 235.751,388.995 235.606,387.419 224.880 C 385.969 215.009,384.874 203.356,383.389 182.000 C 382.219 165.168,381.017 156.635,376.996 136.600 C 372.618 114.783,370.380 99.215,369.206 82.400 C 368.051 65.857,364.767 60.565,357.400 63.379 C 350.992 65.826,349.708 69.863,351.540 81.800 C 353.233 92.826,354.169 101.861,355.597 120.962 C 357.421 145.354,358.347 151.990,363.333 176.400 C 371.170 214.767,369.428 225.319,354.774 228.246 C 351.799 228.840,346.387 228.954,309.000 229.208 C 257.459 229.558,257.599 229.546,253.194 233.980 C 250.439 236.754,249.517 239.246,248.399 246.942 C 246.578 259.480,245.704 261.094,234.219 273.117 C 230.457 277.055,228.358 278.357,220.932 281.365 C 217.449 282.775,213.443 284.415,212.028 285.009 C 204.401 288.214,195.596 287.868,186.587 284.011 C 184.394 283.072,180.994 281.690,179.032 280.939 C 171.729 278.145,169.733 276.643,162.188 268.257 C 155.433 260.751,154.278 258.229,152.615 247.355 C 149.782 228.821,151.070 229.200,90.862 229.200 C 42.656 229.200,39.974 228.869,36.123 222.443 C 31.431 214.613,31.798 205.248,38.007 174.400 C 42.736 150.907,43.712 143.975,45.190 123.400 C 46.714 102.166,47.383 95.663,49.821 78.400 C 50.258 75.303,50.419 72.692,50.245 71.541 C 49.382 65.843,41.823 60.979,37.783 63.521 M146.000 73.027 C 130.612 77.184,128.601 86.227,142.200 90.114 C 146.179 91.251,172.031 91.643,176.056 90.626 C 185.226 88.312,185.597 78.262,176.689 73.503 C 174.487 72.326,150.001 71.946,146.000 73.027 M147.309 121.434 C 136.800 123.198,130.233 129.388,134.588 133.424 C 136.136 134.858,138.984 136.133,143.200 137.277 L 146.600 138.200 200.400 138.200 L 254.200 138.200 257.646 137.320 C 273.029 133.394,269.770 123.669,252.255 121.233 C 247.235 120.535,151.575 120.718,147.309 121.434 M147.871 169.215 C 130.262 171.308,128.336 181.545,144.908 184.968 C 149.436 185.903,251.592 185.927,256.028 184.994 C 271.134 181.816,271.443 173.609,256.600 169.766 C 253.555 168.978,154.110 168.474,147.871 169.215 M18.000 280.209 C 15.358 281.742,13.282 283.909,12.071 286.400 L 11.000 288.600 11.000 324.800 L 11.000 361.000 12.148 365.000 C 14.917 374.649,18.688 378.903,25.454 380.011 C 28.755 380.552,372.764 380.538,375.616 379.997 C 382.208 378.747,385.304 375.381,388.674 365.800 L 389.800 362.600 389.800 325.200 L 389.800 287.800 388.872 286.062 C 384.466 277.805,375.721 276.824,372.320 284.205 L 371.400 286.200 371.171 315.800 C 370.977 340.772,370.846 345.715,370.329 347.417 C 368.433 353.657,365.196 356.863,359.345 358.294 C 356.156 359.075,64.572 359.598,49.400 358.851 C 39.053 358.341,36.193 357.269,33.074 352.727 C 30.046 348.319,30.002 347.817,29.988 317.636 C 29.974 289.201,29.818 286.244,28.169 283.214 C 26.031 279.286,21.763 278.025,18.000 280.209 " stroke="none" fill="#878787" fill-rule="evenodd"/></g></svg>