<svg xmlns="http://www.w3.org/2000/svg" xmlns:xlink="http://www.w3.org/1999/xlink" id="svg" viewBox="0, 0, 400,400"><g id="svgg"><path id="path0" d="M50.000 38.269 C 37.731 39.504,36.293 42.223,34.806 67.000 C 33.511 88.589,32.980 94.876,31.189 109.800 C 30.767 113.320,30.147 118.990,29.812 122.400 C 28.926 131.421,28.271 134.556,25.347 143.747 C 21.767 155.006,20.405 164.317,19.198 185.800 C 18.607 196.322,17.658 209.177,17.191 212.990 C 16.101 221.884,17.425 226.066,22.085 228.444 C 25.749 230.313,26.173 230.328,68.863 230.103 C 117.014 229.850,117.746 229.896,125.569 233.709 C 133.448 237.550,137.878 242.564,140.949 251.119 C 143.087 257.075,144.619 259.620,148.469 263.608 C 149.641 264.822,151.652 267.072,152.938 268.608 C 156.121 272.408,159.296 275.057,163.424 277.356 C 165.959 278.767,167.711 280.142,169.931 282.460 C 175.720 288.506,186.013 290.659,205.200 289.836 C 222.094 289.111,224.883 288.328,230.744 282.664 C 233.151 280.338,235.652 278.358,237.400 277.395 C 241.658 275.049,244.399 272.785,247.915 268.709 C 249.674 266.669,251.604 264.550,252.202 264.000 C 255.287 261.162,257.588 257.395,259.838 251.501 C 263.245 242.573,266.754 238.351,274.000 234.461 C 282.521 229.887,282.524 229.887,332.800 230.059 C 379.551 230.218,376.893 230.380,380.552 227.159 C 384.311 223.850,384.651 222.067,383.607 211.164 C 383.178 206.674,382.459 197.150,382.010 190.000 C 380.207 161.294,379.452 155.807,375.633 143.686 C 372.683 134.321,372.088 131.373,371.017 120.800 C 370.671 117.390,370.032 111.720,369.597 108.200 C 368.087 95.990,367.096 84.101,366.194 67.400 C 364.881 43.077,363.270 39.786,352.010 38.413 C 348.883 38.032,53.756 37.891,50.000 38.269 M329.986 49.626 C 331.409 49.856,332.759 50.187,332.986 50.359 C 333.214 50.532,334.188 50.979,335.150 51.354 C 340.087 53.272,348.917 59.118,351.164 61.955 C 355.305 67.183,355.998 71.488,357.998 104.400 C 359.229 124.668,360.199 130.421,364.776 144.600 C 367.513 153.080,367.899 155.751,371.046 188.000 C 373.196 210.027,370.202 216.220,356.400 218.297 C 352.865 218.829,345.265 218.972,308.400 219.204 C 249.258 219.575,253.387 218.408,251.021 235.424 C 249.452 246.711,246.101 256.441,242.748 259.451 C 242.227 259.919,240.235 261.323,238.323 262.573 C 236.410 263.822,233.413 266.081,231.663 267.594 C 221.567 276.318,213.849 279.202,200.610 279.199 C 187.450 279.196,179.442 276.312,170.000 268.179 C 167.910 266.378,164.490 263.787,162.400 262.421 C 156.290 258.427,156.039 258.071,153.061 249.170 C 151.316 243.955,150.666 240.868,149.420 231.882 C 148.265 223.554,146.584 221.558,139.528 220.146 C 136.603 219.560,130.926 219.445,92.600 219.195 C 43.747 218.877,41.974 218.779,36.520 216.108 C 28.298 212.082,27.797 205.123,32.637 162.200 C 33.774 152.117,34.105 150.530,36.550 143.398 C 40.703 131.281,41.851 123.970,43.204 101.000 C 44.855 72.965,45.585 68.171,48.978 63.060 C 51.880 58.687,64.654 50.744,70.499 49.678 C 73.539 49.124,326.577 49.073,329.986 49.626 M18.683 269.636 C 15.559 272.211,15.800 268.340,15.800 316.000 C 15.800 357.440,15.821 358.633,16.574 359.800 C 18.565 362.888,20.971 364.421,24.990 365.164 C 29.162 365.936,373.497 365.753,376.800 364.978 C 381.387 363.901,383.965 361.644,384.996 357.800 C 385.573 355.653,385.628 351.117,385.520 314.800 L 385.400 274.200 384.400 272.213 C 381.991 267.425,376.761 267.042,374.549 271.492 C 373.843 272.913,373.788 274.726,373.584 303.000 C 373.376 331.969,373.339 333.103,372.523 336.013 C 369.901 345.357,366.526 349.917,360.800 351.855 C 358.163 352.748,50.521 353.274,43.600 352.398 C 35.687 351.396,31.376 346.747,28.506 336.121 L 27.446 332.200 27.223 302.400 L 27.000 272.600 26.049 270.941 C 24.390 268.045,21.281 267.494,18.683 269.636 " stroke="none" fill="#8c8c8c" fill-rule="evenodd"/></g></svg>