<svg xmlns="http://www.w3.org/2000/svg" xmlns:xlink="http://www.w3.org/1999/xlink" id="svg" viewBox="0, 0, 400,400"><g id="svgg"><path id="path0" d="M25.000 17.758 C 22.412 18.579,21.061 19.427,19.299 21.339 C 16.106 24.803,16.384 6.859,16.498 201.609 L 16.600 375.800 17.659 378.059 C 18.950 380.812,21.202 383.137,23.831 384.431 L 25.800 385.400 200.600 385.400 L 375.400 385.400 377.542 384.213 C 380.256 382.710,382.517 380.151,383.687 377.259 L 384.600 375.000 384.707 241.000 C 384.773 159.264,384.668 105.673,384.438 103.598 C 383.340 93.662,378.255 89.585,375.653 96.554 C 373.981 101.033,374.000 99.500,373.993 231.877 C 373.987 339.993,373.900 359.804,373.423 362.058 C 372.079 368.396,368.707 371.808,362.109 373.504 C 358.447 374.445,44.128 374.600,39.616 373.663 C 31.916 372.064,28.003 367.452,27.174 359.000 C 26.703 354.187,26.719 58.764,27.192 49.200 C 27.814 36.609,29.385 32.726,35.086 29.697 C 39.564 27.317,30.985 27.472,171.600 27.223 C 294.617 27.005,301.525 26.955,303.785 26.279 C 311.558 23.954,311.394 20.491,303.400 18.114 C 300.265 17.181,27.915 16.833,25.000 17.758 M208.884 92.626 C 205.223 95.190,203.551 111.216,206.368 116.738 C 208.748 121.402,209.799 121.601,232.120 121.597 C 254.483 121.593,257.692 121.107,261.949 117.077 C 266.922 112.368,265.179 99.730,259.120 96.564 C 256.632 95.265,255.082 96.356,251.438 101.971 C 242.918 115.101,227.862 113.596,217.124 98.541 C 212.651 92.270,211.042 91.115,208.884 92.626 M88.825 101.079 C 87.414 102.670,87.200 105.398,87.200 121.843 C 87.200 130.680,86.975 141.126,86.700 145.056 C 85.433 163.157,86.243 164.955,97.076 168.095 L 100.200 169.000 200.400 169.000 C 292.721 169.000,300.789 168.948,303.000 168.333 C 313.996 165.276,315.710 162.577,314.601 150.066 C 314.184 145.367,314.008 137.889,314.005 124.720 C 314.000 106.926,313.738 102.000,312.794 102.000 C 312.607 102.000,312.340 101.640,312.200 101.200 C 311.646 99.455,306.800 100.845,306.800 102.748 C 306.800 102.960,306.575 103.208,306.300 103.300 C 305.918 103.427,305.741 107.036,305.549 118.633 C 305.111 145.056,303.750 149.374,294.048 155.103 C 287.564 158.931,290.879 158.801,200.200 158.789 C 109.194 158.778,112.845 158.934,106.402 154.770 C 97.031 148.713,95.634 144.122,95.612 119.300 C 95.606 111.545,95.444 105.200,95.252 105.200 C 95.061 105.200,94.800 104.553,94.671 103.763 C 94.228 101.028,90.420 99.280,88.825 101.079 M101.716 233.608 C 91.280 234.720,88.352 239.373,96.556 241.809 C 101.127 243.167,106.937 243.237,204.000 243.115 L 300.200 242.994 303.362 242.097 C 311.848 239.692,311.624 236.518,302.800 234.127 C 300.013 233.372,108.572 232.878,101.716 233.608 M98.527 281.398 C 90.318 283.192,89.515 286.448,96.682 288.878 L 99.400 289.800 198.800 289.914 C 268.786 289.994,298.952 289.900,300.742 289.595 C 310.335 287.961,311.940 284.332,304.235 281.696 C 301.471 280.751,102.809 280.463,98.527 281.398 M100.356 328.039 C 91.569 329.185,88.800 332.796,94.652 335.475 C 99.524 337.706,95.069 337.622,202.213 337.506 L 301.000 337.400 303.709 336.481 C 311.632 333.794,311.575 330.707,303.564 328.521 C 300.726 327.746,106.137 327.285,100.356 328.039 " stroke="none" fill="#f3f3f3" fill-rule="evenodd"/></g></svg>