<svg xmlns="http://www.w3.org/2000/svg" xmlns:xlink="http://www.w3.org/1999/xlink" id="svg" viewBox="0, 0, 400,400"><g id="svgg"><path id="path0" d="M162.000 32.272 C 137.020 33.680,128.650 35.461,122.061 40.773 C 118.705 43.479,118.335 43.652,109.875 46.469 C 99.386 49.962,96.623 51.326,94.182 54.220 C 90.361 58.749,88.680 60.149,84.705 62.116 C 80.385 64.253,77.947 66.397,76.031 69.746 C 74.434 72.537,73.314 73.623,69.123 76.447 C 65.361 78.982,64.304 80.251,61.665 85.400 C 59.852 88.936,58.973 90.043,56.600 91.780 C 51.486 95.521,51.022 96.284,46.721 108.000 C 43.644 116.381,42.559 118.499,39.683 121.751 C 31.691 130.782,28.810 175.462,34.010 209.716 C 35.292 218.160,38.826 227.142,41.684 229.219 C 42.700 229.958,45.854 236.561,47.396 241.177 C 49.522 247.540,50.635 249.584,54.104 253.488 C 55.515 255.076,58.977 259.712,61.797 263.788 C 67.213 271.617,68.928 273.524,74.388 277.789 C 76.251 279.245,79.205 281.733,80.951 283.318 C 88.232 289.926,92.873 292.918,100.374 295.841 C 102.955 296.847,103.799 297.457,106.774 300.459 C 111.706 305.437,113.412 306.117,129.200 309.388 C 131.950 309.958,136.000 310.858,138.200 311.389 C 140.400 311.919,144.450 312.644,147.200 312.999 C 152.272 313.655,158.303 314.925,159.528 315.596 C 160.466 316.110,166.912 317.474,169.808 317.772 C 172.469 318.045,179.209 317.264,185.200 315.987 C 187.290 315.542,191.790 314.633,195.200 313.966 C 198.610 313.300,202.300 312.491,203.400 312.169 C 204.500 311.847,210.213 310.693,216.096 309.604 C 231.508 306.752,232.499 306.380,237.483 301.587 C 240.958 298.244,240.826 298.322,249.771 294.379 C 258.747 290.423,259.953 289.620,263.384 285.319 C 265.943 282.111,267.365 280.918,271.375 278.614 C 274.529 276.801,276.717 274.496,279.055 270.524 C 280.699 267.731,281.944 266.201,284.112 264.309 C 290.199 259.000,290.223 258.965,294.439 249.132 C 298.002 240.824,298.440 240.069,301.374 237.200 C 306.027 232.650,306.683 230.862,309.443 215.200 C 310.471 209.370,311.563 203.250,311.871 201.600 C 312.180 199.950,312.596 195.900,312.796 192.600 C 313.163 186.565,313.613 182.485,314.434 177.772 C 315.004 174.498,314.700 168.902,313.668 163.673 C 313.220 161.403,312.655 157.083,312.413 154.073 C 311.679 144.956,311.250 141.920,309.374 132.581 C 306.211 116.829,304.963 113.559,300.115 108.322 C 296.849 104.793,296.013 103.417,293.997 98.248 C 292.423 94.214,291.063 92.265,286.974 88.186 C 285.153 86.369,283.354 84.278,282.977 83.541 C 279.473 76.690,267.060 64.767,259.000 60.511 C 256.125 58.992,254.635 57.839,251.600 54.784 C 247.431 50.587,246.119 49.815,239.426 47.621 C 232.301 45.285,228.851 43.594,222.853 39.500 C 218.330 36.411,216.099 35.660,207.800 34.431 C 194.383 32.444,175.085 31.535,162.000 32.272 M193.200 41.977 C 208.357 43.504,215.641 45.650,221.864 50.420 C 225.230 53.000,227.425 54.096,233.153 56.061 C 240.727 58.659,245.932 61.698,251.123 66.552 C 254.520 69.729,257.617 71.923,261.600 73.973 C 265.062 75.754,265.594 76.289,268.156 80.553 C 270.542 84.526,272.842 87.119,276.140 89.556 C 279.885 92.323,279.812 92.201,287.721 108.800 C 288.678 110.810,290.213 112.988,292.373 115.400 C 297.279 120.879,297.958 122.717,300.423 137.200 C 301.303 142.370,302.989 151.010,304.168 156.400 C 307.519 171.705,307.463 171.234,306.703 177.981 C 306.342 181.181,305.400 186.410,304.609 189.600 C 303.818 192.790,302.539 199.180,301.767 203.800 C 298.710 222.097,296.787 227.743,290.991 235.427 C 287.831 239.617,286.702 241.508,285.367 244.844 C 283.038 250.665,281.842 252.474,278.726 254.890 C 275.093 257.707,273.597 259.283,271.214 262.800 C 268.306 267.093,267.225 268.230,264.000 270.390 C 259.654 273.300,258.477 274.357,256.159 277.437 C 253.058 281.557,251.403 282.838,246.358 285.018 C 241.867 286.959,238.788 288.876,235.600 291.715 C 231.850 295.053,223.328 298.363,212.800 300.569 C 208.950 301.376,203.640 302.494,201.000 303.053 C 198.360 303.613,193.320 305.022,189.800 306.186 C 180.857 309.143,179.067 309.441,170.797 309.349 C 166.638 309.303,160.153 308.315,159.600 307.643 C 159.319 307.302,149.973 304.064,146.600 303.140 C 145.060 302.718,140.200 301.745,135.800 300.979 C 121.708 298.525,119.754 297.798,113.304 292.607 C 109.735 289.735,103.349 286.250,94.981 282.607 C 91.514 281.097,90.485 280.220,88.270 276.888 C 85.906 273.331,84.046 271.603,80.262 269.447 C 75.822 266.918,74.725 265.765,72.335 261.112 C 70.219 256.991,69.103 255.645,63.932 250.975 C 62.699 249.862,61.240 248.062,60.690 246.975 C 59.515 244.654,54.800 233.255,54.800 232.734 C 54.800 231.574,51.716 226.212,49.776 224.000 C 43.677 217.045,40.784 200.902,40.806 173.934 C 40.827 147.361,43.475 133.038,50.165 123.317 C 52.975 119.235,54.863 115.511,56.612 110.604 C 58.506 105.291,59.517 103.665,63.580 99.400 C 65.466 97.419,68.194 93.991,69.643 91.781 C 74.795 83.917,84.721 74.321,93.542 68.677 C 94.851 67.839,97.531 65.562,99.497 63.616 C 103.431 59.722,105.042 58.760,111.498 56.447 C 117.176 54.413,119.777 53.112,124.811 49.792 C 132.893 44.460,138.501 43.152,160.600 41.446 C 164.387 41.153,189.007 41.554,193.200 41.977 M105.334 125.574 C 101.024 128.452,95.606 135.488,94.050 140.227 C 91.843 146.949,89.200 165.501,89.200 174.267 C 89.200 186.090,93.110 207.852,96.282 213.679 C 98.889 218.469,108.511 223.509,110.614 221.185 C 112.877 218.684,111.768 214.607,107.634 210.230 C 103.516 205.870,102.241 202.435,101.014 192.389 C 97.836 166.383,100.896 144.361,109.015 134.808 C 115.374 127.326,112.712 120.647,105.334 125.574 M319.054 286.429 C 316.539 288.407,317.826 291.608,322.262 294.409 C 325.654 296.551,326.484 297.471,328.460 301.269 C 330.628 305.437,332.542 307.505,335.970 309.383 C 339.647 311.399,341.028 312.775,342.997 316.382 C 345.216 320.448,347.114 322.453,350.922 324.754 C 354.789 327.090,355.404 327.740,357.438 331.644 C 359.248 335.119,362.402 338.435,365.790 340.424 C 369.073 342.352,370.488 344.339,371.507 348.450 C 376.226 367.497,373.052 373.439,358.200 373.363 C 346.032 373.302,342.894 372.066,338.991 365.800 C 336.798 362.279,335.386 360.950,331.626 358.868 C 327.429 356.544,325.776 354.980,323.667 351.338 C 321.755 348.037,319.483 345.885,315.918 343.998 C 311.900 341.871,310.881 340.893,308.540 336.915 C 306.109 332.784,304.584 331.371,299.453 328.496 C 296.799 327.009,296.129 326.387,294.178 323.603 C 291.434 319.687,290.362 318.800,288.375 318.800 C 281.781 318.800,285.728 329.546,295.070 337.028 C 297.342 338.848,299.932 341.450,301.870 343.861 C 303.592 346.002,305.990 348.537,307.200 349.493 C 311.598 352.969,315.077 356.262,317.413 359.159 C 318.726 360.786,321.690 363.689,324.000 365.608 C 326.310 367.528,329.686 370.823,331.502 372.931 C 341.987 385.103,361.898 388.434,376.569 380.469 C 383.984 376.444,386.691 355.613,381.202 344.821 C 378.286 339.088,376.286 336.852,350.622 310.631 C 331.038 290.623,331.842 291.421,329.400 289.572 C 324.535 285.891,321.075 284.840,319.054 286.429 " stroke="none" fill="#878787" fill-rule="evenodd"/></g></svg>