<svg xmlns="http://www.w3.org/2000/svg" xmlns:xlink="http://www.w3.org/1999/xlink" id="svg" viewBox="0, 0, 400,400"><g id="svgg"><path id="path0" d="M323.346 24.991 C 320.457 25.740,316.407 27.009,314.346 27.812 C 312.286 28.614,308.681 29.964,306.335 30.811 C 298.360 33.691,296.723 34.830,292.646 40.338 C 291.236 42.242,288.338 45.501,286.206 47.581 C 281.651 52.024,280.426 54.155,279.002 60.107 C 273.566 82.843,275.978 103.077,285.442 114.144 C 296.095 126.602,309.603 136.170,318.536 137.587 C 339.180 140.861,355.443 137.495,366.049 127.754 C 367.892 126.061,371.054 123.438,373.075 121.924 C 381.790 115.400,384.421 109.768,389.014 87.800 C 390.164 82.299,389.438 76.358,385.786 61.400 C 383.585 52.387,382.505 50.348,377.086 44.988 C 374.619 42.548,371.340 39.195,369.800 37.536 C 366.237 33.699,364.770 32.875,355.882 29.712 C 337.191 23.062,333.089 22.466,323.346 24.991 M340.800 46.586 C 348.412 47.749,351.085 49.142,354.993 53.980 C 356.317 55.619,359.219 58.859,361.443 61.180 C 367.116 67.102,368.064 69.248,368.805 77.856 C 370.340 95.684,360.085 108.876,339.318 115.791 C 332.605 118.026,330.173 117.832,322.400 114.439 C 308.692 108.455,306.046 105.967,298.821 92.269 C 294.043 83.210,295.338 72.010,302.072 64.145 C 303.365 62.635,305.852 59.306,307.598 56.747 C 310.871 51.950,312.252 50.500,314.765 49.218 C 320.224 46.433,332.008 45.242,340.800 46.586 M235.332 111.984 C 233.516 112.416,231.108 113.726,227.088 116.467 C 222.699 119.458,216.877 122.223,210.400 124.390 C 204.529 126.354,201.244 128.003,197.400 130.917 C 191.859 135.118,188.686 136.698,179.400 139.881 C 171.494 142.591,166.687 145.558,159.849 151.950 C 149.103 161.994,156.371 172.367,171.088 167.992 C 177.295 166.147,179.661 164.883,185.124 160.493 C 188.090 158.110,191.550 156.467,199.200 153.810 C 208.328 150.639,209.963 149.788,216.183 144.973 C 219.378 142.499,221.881 141.296,229.000 138.815 C 242.766 134.018,244.809 131.822,244.836 121.792 C 244.857 114.379,241.185 110.590,235.332 111.984 M61.000 143.417 C 56.682 144.223,53.478 145.330,50.600 147.011 C 49.280 147.782,45.230 149.861,41.600 151.631 C 26.319 159.081,18.229 168.636,14.581 183.545 C 11.319 196.881,10.879 202.871,12.581 210.800 C 17.917 235.651,20.948 239.501,47.600 255.274 C 54.446 259.326,65.754 260.943,76.591 259.420 C 84.119 258.363,86.162 257.532,92.400 252.995 C 94.270 251.635,97.240 249.747,99.000 248.799 C 104.204 245.998,106.964 243.817,110.258 239.898 C 111.968 237.864,114.640 234.832,116.196 233.160 C 122.242 226.662,124.547 218.108,124.537 202.200 C 124.525 184.240,122.272 175.827,115.654 169.034 C 113.493 166.815,110.625 163.537,109.281 161.749 C 105.881 157.223,104.108 155.903,97.573 153.027 C 95.314 152.032,91.897 150.224,89.979 149.008 C 81.289 143.499,71.096 141.533,61.000 143.417 M74.648 167.414 C 87.359 169.612,90.125 171.161,94.736 178.664 C 96.074 180.841,98.438 184.237,99.990 186.211 C 106.950 195.063,107.077 206.368,100.324 215.800 C 98.907 217.780,96.826 220.930,95.701 222.800 C 92.491 228.134,89.953 230.431,85.144 232.355 C 67.797 239.294,51.141 235.835,40.696 223.124 C 33.083 213.860,32.200 211.602,32.200 201.400 C 32.200 191.338,32.977 189.000,38.364 182.850 C 39.833 181.173,42.057 178.512,43.305 176.937 C 48.113 170.873,51.580 169.060,61.200 167.580 C 67.034 166.683,70.192 166.644,74.648 167.414 M160.200 233.533 C 154.539 236.259,153.754 242.604,158.254 249.261 C 162.261 255.188,166.580 258.035,176.907 261.555 C 183.887 263.934,187.049 265.499,192.000 269.027 C 197.331 272.825,201.277 274.819,208.178 277.201 C 215.428 279.704,216.828 280.398,222.959 284.523 C 235.034 292.648,243.398 292.628,245.148 284.470 C 247.085 275.438,239.953 267.181,226.317 262.666 C 219.240 260.323,216.188 258.852,211.512 255.529 C 205.808 251.475,201.487 249.297,194.264 246.835 C 187.346 244.477,185.655 243.645,181.000 240.302 C 172.137 233.939,164.511 231.458,160.200 233.533 M326.521 263.626 C 317.666 264.484,313.448 265.913,308.400 269.768 C 306.750 271.028,303.330 273.340,300.800 274.905 C 294.219 278.978,283.679 289.786,280.645 295.574 C 275.672 305.060,274.976 328.712,279.207 344.425 C 280.193 348.088,281.994 350.907,285.580 354.400 C 287.500 356.270,290.154 359.240,291.478 361.000 C 295.640 366.532,297.630 368.030,304.400 370.731 C 306.050 371.389,310.190 373.350,313.600 375.088 C 327.037 381.937,338.465 382.099,350.600 375.612 C 352.580 374.554,356.576 372.693,359.481 371.476 C 367.165 368.258,367.774 367.783,377.120 357.728 C 383.281 351.100,383.970 349.696,386.630 338.359 C 389.053 328.030,389.861 319.181,388.836 314.200 C 383.888 290.169,381.318 286.179,362.382 273.138 C 351.623 265.728,348.815 264.666,337.200 263.618 C 332.141 263.161,331.320 263.162,326.521 263.626 M341.327 288.376 C 356.018 292.182,367.138 303.678,368.767 316.742 C 370.071 327.204,368.006 334.528,361.911 341.065 C 360.302 342.789,358.153 345.287,357.134 346.617 C 351.021 354.591,339.762 357.889,325.800 355.795 C 314.248 354.063,311.162 352.329,306.700 345.069 C 305.348 342.869,303.091 339.614,301.684 337.835 C 294.198 328.368,293.806 317.625,300.573 307.400 C 302.174 304.980,304.519 301.415,305.783 299.477 C 309.871 293.211,314.464 290.710,328.600 287.050 C 330.530 286.550,336.803 287.204,341.327 288.376 " stroke="none" fill="#8b8b8b" fill-rule="evenodd"/></g></svg>