<svg xmlns="http://www.w3.org/2000/svg" xmlns:xlink="http://www.w3.org/1999/xlink" id="svg" viewBox="0, 0, 400,400"><g id="svgg"><path id="path0" d="M189.400 17.036 C 188.520 17.123,185.460 17.383,182.600 17.613 C 165.298 19.006,160.330 20.504,154.848 25.983 C 151.460 29.370,151.250 29.504,142.700 33.735 C 133.302 38.386,133.273 38.407,126.400 45.855 C 124.970 47.405,122.450 49.583,120.800 50.696 C 115.291 54.411,114.546 55.501,109.593 67.095 C 106.656 73.966,105.643 75.900,103.722 78.298 C 97.433 86.148,95.864 93.758,95.824 116.600 C 95.784 140.003,97.153 147.413,102.957 155.206 C 105.730 158.929,107.893 163.215,111.170 171.480 C 113.647 177.725,114.938 179.387,119.961 182.794 C 123.219 185.004,124.573 186.364,126.738 189.598 C 128.943 192.892,130.922 194.438,136.446 197.182 C 142.391 200.135,144.338 201.360,148.655 204.862 C 156.017 210.834,158.770 212.043,170.259 214.351 C 191.081 218.533,204.944 218.388,227.200 213.754 C 238.569 211.387,240.656 210.553,243.765 207.140 C 248.793 201.620,248.770 201.637,254.650 198.816 C 266.298 193.228,271.266 188.312,277.121 176.581 C 278.923 172.969,279.498 172.222,282.786 169.213 C 287.996 164.446,288.352 163.737,292.143 150.600 C 299.172 126.241,300.059 110.011,295.215 94.425 C 294.356 91.661,292.554 85.620,291.211 81.000 C 288.192 70.614,287.090 68.237,284.121 65.705 C 278.678 61.062,278.238 60.545,276.078 56.254 C 273.806 51.739,271.471 48.817,268.215 46.411 C 267.097 45.585,265.287 43.940,264.191 42.755 C 258.454 36.547,258.087 36.290,249.340 32.393 C 247.302 31.485,245.864 30.477,244.340 28.887 C 238.561 22.862,237.669 22.296,231.400 20.674 C 221.645 18.149,198.454 16.140,189.400 17.036 M214.053 29.209 C 225.453 30.709,228.120 31.690,233.271 36.279 C 236.028 38.734,237.631 39.748,242.600 42.175 C 255.114 48.288,258.199 51.059,266.702 63.825 C 268.452 66.451,271.326 70.178,273.089 72.107 C 278.536 78.064,279.477 80.575,281.589 94.800 C 282.259 99.310,283.434 105.610,284.201 108.800 C 285.895 115.850,285.908 116.715,284.430 124.018 C 283.786 127.198,282.604 134.004,281.803 139.143 C 279.551 153.595,277.724 158.152,271.197 165.600 C 267.607 169.696,265.003 173.299,262.923 177.047 C 260.119 182.098,258.962 183.175,252.676 186.591 C 246.039 190.197,242.477 192.463,238.159 195.827 C 230.390 201.878,226.810 202.990,211.200 204.197 C 185.337 206.196,161.194 202.791,155.353 196.320 C 151.498 192.050,149.868 190.788,145.169 188.433 C 138.872 185.278,138.024 184.572,134.906 179.888 C 132.919 176.904,131.364 175.138,128.723 172.869 C 124.762 169.464,123.791 168.217,121.977 164.200 C 118.737 157.028,117.929 155.448,115.905 152.334 C 109.646 142.703,108.046 137.718,107.161 125.101 C 106.490 115.528,107.202 103.244,108.805 96.721 C 109.646 93.303,110.241 92.012,113.334 86.904 C 116.646 81.433,118.999 76.965,121.582 71.239 C 124.406 64.981,125.475 63.540,129.651 60.361 C 132.904 57.885,133.792 56.849,137.325 51.401 C 139.679 47.773,141.114 46.658,145.819 44.801 C 150.072 43.122,152.660 41.642,157.200 38.293 C 164.444 32.949,171.604 30.125,180.704 29.019 C 187.970 28.137,206.715 28.243,214.053 29.209 M109.800 249.847 C 99.989 252.224,97.884 253.117,93.460 256.776 C 89.644 259.933,84.521 262.104,75.822 264.251 C 64.300 267.094,63.798 268.174,60.795 296.600 C 59.162 312.058,58.943 313.345,56.396 322.400 C 52.492 336.281,50.366 352.620,50.256 369.600 C 50.186 380.304,51.199 383.068,56.162 385.724 L 57.800 386.600 199.200 386.705 C 302.334 386.782,341.187 386.689,342.769 386.363 C 345.559 385.787,348.692 382.843,349.758 379.797 C 352.016 373.343,350.068 351.448,345.595 332.995 C 342.063 318.430,341.501 314.880,338.789 290.024 C 336.329 267.479,336.255 267.352,323.504 263.967 C 312.997 261.178,310.196 259.983,306.744 256.820 C 302.198 252.653,290.166 248.763,285.624 249.992 C 278.359 251.956,280.345 258.046,289.358 261.447 C 293.349 262.952,295.603 264.129,299.347 266.662 C 303.068 269.180,307.897 271.578,314.119 273.996 C 324.566 278.058,325.987 280.715,327.596 299.200 C 328.976 315.047,330.447 325.768,332.786 337.000 C 334.556 345.505,336.000 354.588,336.000 357.223 C 336.000 364.596,330.889 369.713,320.759 372.482 L 317.400 373.400 200.600 373.400 C 70.283 373.400,81.568 373.640,74.500 370.722 C 63.386 366.135,62.203 359.941,67.418 333.639 C 70.379 318.704,71.852 309.163,73.199 296.200 C 74.876 280.051,76.393 277.733,88.362 273.028 C 93.298 271.087,96.275 269.573,100.322 266.946 C 104.324 264.348,107.042 262.972,111.751 261.164 C 119.313 258.259,121.503 253.946,117.087 250.654 C 115.981 249.829,111.788 249.365,109.800 249.847 " stroke="none" fill="#8a8a8a" fill-rule="evenodd"/></g></svg>