<svg xmlns="http://www.w3.org/2000/svg" xmlns:xlink="http://www.w3.org/1999/xlink" id="svg" viewBox="0, 0, 400,400"><g id="svgg"><path id="path0" d="M146.800 16.678 C 137.097 17.222,122.073 19.084,118.012 20.247 C 114.286 21.314,112.725 22.338,109.000 26.159 C 106.973 28.238,104.701 30.165,103.800 30.568 C 90.906 36.347,87.399 38.767,81.600 45.882 C 76.863 51.695,74.029 55.053,71.611 57.721 C 67.441 62.322,65.396 65.796,63.149 72.095 C 61.310 77.248,60.806 78.150,57.541 82.117 C 51.407 89.574,49.747 98.145,50.112 120.479 C 50.417 139.097,51.830 145.539,56.980 151.800 C 59.576 154.955,60.220 156.109,62.595 161.855 C 66.194 170.561,68.946 174.951,73.848 179.800 C 76.930 182.849,79.088 185.428,80.878 188.200 C 84.081 193.159,85.312 194.248,90.875 197.037 C 96.941 200.080,101.645 203.078,105.164 206.145 C 110.949 211.188,113.734 212.367,125.200 214.628 C 147.103 218.948,160.902 218.669,185.310 213.413 C 194.405 211.454,195.225 210.992,201.680 204.174 C 203.168 202.603,204.919 201.501,210.080 198.888 C 221.982 192.861,226.299 188.477,232.610 176.011 C 232.996 175.247,235.147 172.719,237.388 170.394 C 241.647 165.975,242.812 164.098,244.335 159.200 C 244.780 157.770,245.589 155.160,246.134 153.400 C 247.573 148.750,251.330 138.120,252.341 135.837 C 257.005 125.307,256.544 106.957,251.332 95.627 C 250.769 94.402,248.597 88.270,246.505 82.000 C 241.524 67.065,242.320 68.446,234.525 61.200 C 233.105 59.880,231.792 58.200,231.243 57.000 C 229.149 52.422,226.770 49.227,222.710 45.538 C 220.491 43.521,217.616 40.829,216.323 39.556 C 213.568 36.843,210.634 34.993,206.200 33.173 C 201.807 31.369,200.560 30.473,196.997 26.558 C 192.707 21.846,190.000 20.671,179.200 18.836 C 171.640 17.551,153.174 16.322,146.800 16.678 M165.429 29.024 C 178.502 30.304,181.832 31.385,187.727 36.267 C 190.777 38.792,192.929 40.164,196.765 42.026 C 209.105 48.017,210.897 49.455,217.728 58.845 C 220.511 62.670,224.065 67.240,225.625 69.000 C 231.042 75.110,232.742 78.257,234.603 85.628 C 235.183 87.923,236.447 92.230,237.411 95.200 C 242.932 112.193,243.627 122.929,239.817 132.400 C 238.219 136.375,236.640 141.207,235.177 146.600 C 232.281 157.273,229.617 162.350,223.641 168.584 C 220.214 172.159,219.083 173.728,216.277 178.800 C 214.183 182.585,212.849 183.768,207.868 186.263 C 202.809 188.795,199.581 190.801,193.748 195.038 C 183.792 202.270,178.713 203.603,158.176 204.376 C 141.134 205.018,128.973 203.706,118.605 200.108 C 113.174 198.224,112.995 198.114,108.485 193.903 C 105.021 190.668,103.881 189.885,99.467 187.707 C 93.636 184.830,92.206 183.573,89.297 178.768 C 87.142 175.208,86.109 174.093,82.129 171.030 C 78.931 168.568,78.129 167.295,75.399 160.357 C 74.154 157.191,71.148 150.558,68.719 145.619 C 62.322 132.609,60.782 123.004,62.601 107.454 C 63.630 98.658,64.407 96.195,68.042 90.200 C 69.109 88.440,71.173 84.210,72.629 80.800 C 78.559 66.912,79.432 65.437,83.800 61.933 C 87.237 59.176,89.167 57.154,90.610 54.800 C 94.487 48.476,95.349 47.705,101.600 44.973 C 105.887 43.100,110.791 40.348,117.295 36.166 C 128.204 29.150,143.515 26.878,165.429 29.024 M300.200 65.950 C 292.630 67.946,293.743 73.110,302.800 78.019 C 304.890 79.151,308.130 81.207,310.000 82.586 C 311.870 83.965,315.819 86.389,318.776 87.973 C 332.120 95.120,339.756 104.287,343.144 117.228 C 343.811 119.774,344.922 123.554,345.614 125.628 C 349.708 137.909,350.027 145.322,346.830 153.929 C 345.957 156.278,344.605 160.450,343.825 163.200 C 339.719 177.671,337.467 181.707,331.187 185.848 C 328.555 187.583,326.009 189.766,323.146 192.741 C 318.292 197.785,316.288 198.943,307.732 201.646 C 297.535 204.868,295.200 206.339,295.200 209.537 C 295.200 218.327,314.574 216.264,324.987 206.366 C 326.974 204.477,329.980 202.007,331.668 200.876 C 343.326 193.060,349.533 185.400,353.606 173.800 C 354.737 170.579,356.200 167.499,358.052 164.437 C 362.535 157.027,364.276 149.573,363.852 139.600 C 363.436 129.819,362.593 126.807,357.474 116.800 C 355.505 112.950,353.009 107.463,351.928 104.607 C 349.659 98.612,348.419 96.829,344.348 93.706 C 341.121 91.230,340.165 90.199,338.016 86.873 C 335.888 83.581,333.284 81.490,328.242 79.026 C 324.200 77.051,323.473 76.517,320.174 73.099 C 314.853 67.587,306.003 64.420,300.200 65.950 M332.600 260.613 C 330.698 261.557,329.472 263.710,329.273 266.458 C 328.952 270.894,331.413 272.398,342.000 274.241 C 353.246 276.198,355.963 278.759,360.981 292.132 C 371.723 320.762,371.654 340.288,360.785 347.546 C 356.429 350.456,350.716 351.844,340.908 352.378 C 333.427 352.785,331.936 353.317,329.818 356.334 C 327.478 359.667,328.384 362.862,332.221 364.800 L 334.200 365.800 355.200 365.800 L 376.200 365.800 378.872 364.534 C 384.144 362.036,384.450 360.724,383.241 345.797 C 382.777 340.079,382.123 331.350,381.786 326.400 C 380.534 307.970,379.019 299.105,374.133 281.600 C 370.477 268.503,367.718 265.939,355.200 264.005 C 349.988 263.200,344.034 262.022,339.977 260.994 C 335.462 259.850,334.264 259.788,332.600 260.613 M65.200 261.901 C 64.650 261.975,62.220 262.465,59.800 262.990 C 57.380 263.515,52.700 264.417,49.400 264.995 C 36.139 267.315,34.258 268.429,30.085 276.431 C 29.233 278.064,27.797 280.750,26.893 282.400 C 22.992 289.518,20.318 306.595,19.001 332.800 C 18.300 346.723,17.388 360.091,16.769 365.504 C 15.405 377.432,17.025 382.361,23.375 385.600 L 26.119 387.000 153.560 387.000 C 298.250 387.000,283.112 387.395,286.585 383.533 C 290.114 379.608,290.438 376.951,289.407 360.400 C 288.235 341.588,287.208 333.943,284.330 322.600 C 281.022 309.563,280.494 306.743,279.195 295.200 C 276.696 272.983,273.701 268.617,259.000 265.761 C 256.140 265.205,251.640 264.322,249.000 263.799 C 240.254 262.067,238.516 262.127,235.700 264.258 C 229.953 268.605,233.848 272.656,246.400 275.384 C 257.802 277.863,259.876 279.322,262.937 287.020 C 264.935 292.045,266.174 296.967,267.613 305.600 C 268.788 312.647,269.723 317.131,272.364 328.400 C 273.486 333.186,273.771 334.969,275.596 348.612 C 277.090 359.781,276.576 363.356,272.964 366.922 C 269.965 369.883,262.759 372.364,254.780 373.183 C 249.189 373.757,58.345 373.756,50.600 373.182 C 27.967 371.505,26.779 368.518,31.822 326.000 C 32.148 323.250,32.859 317.220,33.403 312.600 C 34.727 301.349,35.072 300.223,39.586 292.400 C 40.411 290.970,41.855 288.308,42.795 286.485 C 46.705 278.904,50.478 276.696,63.740 274.231 C 69.763 273.112,72.800 270.962,72.800 267.818 C 72.800 264.062,69.316 261.350,65.200 261.901 " stroke="none" fill="#888888" fill-rule="evenodd"/></g></svg>